# xmcd CD database file
# Copyright (C) 1997 Ti Kan
#
# Track frame offsets:
#  182
#  11735
#  22505
#  33787
#  45525
#  57312
#  66255
#  78190
#  90125
#  98870
#
# Disc length: 1483 seconds
#
# Revision: 1
# Processed by: cddbd v1.4b41PL1 Copyright (c) Steve Scherf et al.
# Submitted via: CDWizzard Release:4.32
#
DISCID=6305c90a
DTITLE=PATSY CLINE - Country Spotlight:  Patsy Cline
DYEAR=1900
DGENRE=
TTITLE0=Walkin' After Midnight
TTITLE1=Honky Tonk Merry-Go-Round
TTITLE2=Just Out Of Reach (Of My Two Open Arms)
TTITLE3=In Care Of The Blues
TTITLE4=A Poor Man's Roses (Or A Rich Man's Gold)
TTITLE5=Try Again
TTITLE6=Never No More
TTITLE7=If I Could Only Stay Asleep
TTITLE8=Ain't No Wheels On This Ship
TTITLE9=Fingerprints
EXTD=
EXTT0=
EXTT1=
EXTT2=
EXTT3=
EXTT4=
EXTT5=
EXTT6=
EXTT7=
EXTT8=
EXTT9=
PLAYORDER=
